<svg width="161" height="46" viewBox="0 0 161 46" fill="none" xmlns="http://www.w3.org/2000/svg">
<path d="M6.3539 35.3985C6.03608 35.3985 5.76593 35.2873 5.54345 35.0648C5.32097 34.8423 5.20973 34.5722 5.20973 34.2544V15.6616H1.34816C1.03034 15.6616 0.760188 15.5504 0.53771 15.3279C0.315233 15.0736 0.203995 14.7876 0.203995 14.4698V11.7524C0.203995 11.4346 0.315233 11.1644 0.53771 10.9419C0.760188 10.7194 1.03034 10.6082 1.34816 10.6082H5.20973V8.65359C5.20973 2.96453 8.32441 0.119995 14.5538 0.119995H17.7956C18.1452 0.119995 18.4153 0.231233 18.606 0.45371C18.8285 0.644404 18.9398 0.914555 18.9398 1.26416V3.98156C18.9398 4.33117 18.8285 4.61721 18.606 4.83969C18.3836 5.06217 18.1134 5.17341 17.7956 5.17341H14.7445C13.505 5.17341 12.6309 5.47534 12.1224 6.07921C11.6457 6.68307 11.4073 7.62065 11.4073 8.89195V10.6082H17.3189C17.6685 10.6082 17.9386 10.7194 18.1293 10.9419C18.3518 11.1326 18.463 11.4028 18.463 11.7524V14.4698C18.463 14.8194 18.3518 15.1054 18.1293 15.3279C17.9068 15.5504 17.6367 15.6616 17.3189 15.6616H11.4073V34.2544C11.4073 34.5722 11.2961 34.8423 11.0736 35.0648C10.8511 35.2873 10.581 35.3985 10.2631 35.3985H6.3539Z" fill="white"/>
<path d="M32.8724 35.8753C29.1538 35.8753 26.2775 34.9218 24.2435 33.0148C22.2094 31.0761 21.1129 28.4382 20.954 25.101L20.9063 23.0034L20.954 20.9057C21.1129 17.6003 22.2253 14.9783 24.2911 13.0396C26.357 11.1008 29.2174 10.1315 32.8724 10.1315C36.5274 10.1315 39.3878 11.1008 41.4537 13.0396C43.5195 14.9783 44.6319 17.6003 44.7908 20.9057C44.8226 21.2871 44.8385 21.9863 44.8385 23.0034C44.8385 24.0204 44.8226 24.7196 44.7908 25.101C44.6319 28.4382 43.5354 31.0761 41.5013 33.0148C39.4673 34.9218 36.5909 35.8753 32.8724 35.8753ZM32.8724 31.1556C34.5569 31.1556 35.8599 30.6312 36.7816 29.5823C37.7033 28.5017 38.2118 26.9285 38.3072 24.8626C38.339 24.5448 38.3549 23.9251 38.3549 23.0034C38.3549 22.0817 38.339 21.4619 38.3072 21.1441C38.2118 19.0782 37.7033 17.5209 36.7816 16.4721C35.8599 15.3915 34.5569 14.8512 32.8724 14.8512C31.1879 14.8512 29.8848 15.3915 28.9632 16.4721C28.0415 17.5209 27.5329 19.0782 27.4376 21.1441L27.3899 23.0034L27.4376 24.8626C27.5329 26.9285 28.0415 28.5017 28.9632 29.5823C29.8848 30.6312 31.1879 31.1556 32.8724 31.1556Z" fill="white"/>
<path d="M48.3269 35.3985C48.0408 35.3985 47.7866 35.3032 47.5641 35.1125C47.3734 34.89 47.278 34.6357 47.278 34.3497C47.278 34.0637 47.3893 33.7935 47.6118 33.5393L55.7163 22.6696L48.1838 12.4675C47.9931 12.2132 47.8978 11.9431 47.8978 11.657C47.8978 11.371 47.9931 11.1326 48.1838 10.9419C48.4063 10.7194 48.6606 10.6082 48.9466 10.6082H53.0942C53.4121 10.6082 53.6504 10.6877 53.8093 10.8466C54 10.9737 54.1907 11.1644 54.3814 11.4187L59.7685 18.5697L65.1557 11.4187C65.1875 11.3869 65.3146 11.2439 65.5371 10.9896C65.7278 10.7353 66.0297 10.6082 66.4429 10.6082H70.3998C70.6858 10.6082 70.9242 10.7194 71.1149 10.9419C71.3374 11.1326 71.4486 11.3551 71.4486 11.6094C71.4486 11.9272 71.3533 12.2132 71.1626 12.4675L63.5348 22.765L71.687 33.5393C71.9094 33.7935 72.0207 34.0637 72.0207 34.3497C72.0207 34.6357 71.9094 34.89 71.687 35.1125C71.4963 35.3032 71.2579 35.3985 70.9719 35.3985H66.6336C66.125 35.3985 65.696 35.1443 65.3464 34.6357L59.6255 27.0556L53.8093 34.6357C53.4597 35.1443 53.0307 35.3985 52.5221 35.3985H48.3269Z" fill="white"/>
<path d="M86.6971 45.8867C83.8685 45.8867 81.5801 45.41 79.8321 44.4565C78.0841 43.5348 76.8445 42.4701 76.1135 41.2624C75.3825 40.0547 75.0171 39.0217 75.0171 38.1636C75.0171 37.8776 75.1283 37.6233 75.3508 37.4008C75.605 37.1783 75.8752 37.0671 76.1612 37.0671H80.3088C80.5949 37.0671 80.8332 37.1307 81.0239 37.2578C81.2464 37.4167 81.4212 37.6869 81.5483 38.0683C81.8662 38.9264 82.3747 39.6415 83.0739 40.2136C83.8049 40.8174 84.9332 41.1194 86.4587 41.1194C88.3657 41.1194 89.7641 40.6903 90.654 39.8322C91.5757 38.9741 92.0366 37.4962 92.0366 35.3985V32.1567C90.2885 34.2226 87.8413 35.2555 84.6948 35.2555C81.3894 35.2555 78.8945 34.2385 77.21 32.2044C75.5574 30.1703 74.6674 27.437 74.5403 24.0045L74.4926 22.7173L74.5403 21.4301C74.6674 18.0612 75.5732 15.3438 77.2577 13.2779C78.9422 11.1803 81.4212 10.1315 84.6948 10.1315C86.3793 10.1315 87.8572 10.4493 89.1285 11.0849C90.3998 11.7206 91.4645 12.5946 92.3226 13.707V11.8C92.3226 11.4504 92.4338 11.1644 92.6563 10.9419C92.8788 10.7194 93.1489 10.6082 93.4668 10.6082H97.3283C97.6462 10.6082 97.9163 10.7353 98.1388 10.9896C98.3613 11.2121 98.4725 11.4822 98.4725 11.8L98.5202 34.7788C98.5202 38.3066 97.5349 41.0399 95.5644 42.9786C93.5939 44.9174 90.6381 45.8867 86.6971 45.8867ZM86.4587 30.2021C88.2703 30.2021 89.6211 29.63 90.511 28.4858C91.4327 27.3417 91.9412 25.9432 92.0366 24.2906C92.0683 24.0363 92.0842 23.5119 92.0842 22.7173C92.0842 21.9545 92.0683 21.446 92.0366 21.1918C91.9412 19.5073 91.4327 18.093 90.511 16.9488C89.6211 15.8046 88.2703 15.2326 86.4587 15.2326C83.0262 15.2326 81.2146 17.3461 81.0239 21.5732L80.9763 22.7173C80.9763 24.9739 81.3735 26.7855 82.1681 28.1521C82.9944 29.5188 84.4247 30.2021 86.4587 30.2021Z" fill="white"/>
<path d="M106.015 35.3985C105.697 35.3985 105.427 35.2873 105.205 35.0648C104.982 34.8423 104.871 34.5722 104.871 34.2544V11.8C104.871 11.4822 104.982 11.2121 105.205 10.9896C105.427 10.7353 105.697 10.6082 106.015 10.6082H109.877C110.226 10.6082 110.512 10.7194 110.735 10.9419C110.957 11.1644 111.068 11.4504 111.068 11.8V13.7547C111.831 12.7376 112.785 11.959 113.929 11.4187C115.105 10.8784 116.44 10.6082 117.933 10.6082H119.888C120.238 10.6082 120.508 10.7194 120.699 10.9419C120.921 11.1326 121.032 11.4028 121.032 11.7524V15.1849C121.032 15.5027 120.921 15.7729 120.699 15.9953C120.508 16.2178 120.238 16.3291 119.888 16.3291H116.17C114.676 16.3291 113.5 16.7581 112.642 17.6162C111.784 18.4744 111.354 19.6503 111.354 21.1441V34.2544C111.354 34.5722 111.243 34.8423 111.021 35.0648C110.798 35.2873 110.512 35.3985 110.163 35.3985H106.015Z" fill="white"/>
<path d="M125.704 6.50827C125.386 6.50827 125.116 6.39703 124.893 6.17455C124.671 5.95208 124.56 5.68193 124.56 5.3641V1.93159C124.56 1.61377 124.671 1.34362 124.893 1.12114C125.116 0.898665 125.386 0.787427 125.704 0.787427H130.042C130.36 0.787427 130.63 0.898665 130.853 1.12114C131.107 1.34362 131.234 1.61377 131.234 1.93159V5.3641C131.234 5.68193 131.123 5.95208 130.9 6.17455C130.678 6.39703 130.392 6.50827 130.042 6.50827H125.704ZM125.895 35.3985C125.577 35.3985 125.307 35.2873 125.084 35.0648C124.862 34.8423 124.75 34.5722 124.75 34.2544V11.7524C124.75 11.4346 124.862 11.1644 125.084 10.9419C125.307 10.7194 125.577 10.6082 125.895 10.6082H129.851C130.201 10.6082 130.471 10.7194 130.662 10.9419C130.884 11.1326 130.996 11.4028 130.996 11.7524V34.2544C130.996 34.5722 130.884 34.8423 130.662 35.0648C130.471 35.2873 130.201 35.3985 129.851 35.3985H125.895Z" fill="white"/>
<path d="M146.522 35.8753C143.312 35.8753 140.848 34.8423 139.132 32.7765C137.416 30.7106 136.494 27.9614 136.367 24.5289L136.319 22.9557L136.367 21.4301C136.462 18.093 137.368 15.3756 139.085 13.2779C140.833 11.1803 143.312 10.1315 146.522 10.1315C149.605 10.1315 152.052 11.1803 153.863 13.2779V2.69437C153.863 2.34477 153.975 2.07462 154.197 1.88392C154.42 1.66144 154.69 1.5502 155.008 1.5502H159.06C159.409 1.5502 159.68 1.66144 159.87 1.88392C160.093 2.07462 160.204 2.34477 160.204 2.69437V34.2544C160.204 34.5722 160.093 34.8423 159.87 35.0648C159.68 35.2873 159.409 35.3985 159.06 35.3985H155.294C154.976 35.3985 154.706 35.2873 154.483 35.0648C154.261 34.8423 154.149 34.5722 154.149 34.2544V32.4904C152.338 34.747 149.795 35.8753 146.522 35.8753ZM148.286 30.7742C150.129 30.7742 151.496 30.1862 152.385 29.0103C153.275 27.8343 153.768 26.3882 153.863 24.6719C153.895 24.2906 153.911 23.6708 153.911 22.8127C153.911 21.9863 153.895 21.3825 153.863 21.0011C153.8 19.4119 153.291 18.0612 152.338 16.9488C151.416 15.8046 150.065 15.2326 148.286 15.2326C144.853 15.2326 143.026 17.3461 142.803 21.5732L142.755 23.0034L142.803 24.4336C143.026 28.6606 144.853 30.7742 148.286 30.7742Z" fill="white"/>
</svg>
